<svg width="193" height="268" viewBox="0 0 193 268" fill="none" xmlns="http://www.w3.org/2000/svg">
<path d="M88.077 55.7745C77.0421 55.7745 71.8844 66.5695 70.685 71.967C74.0834 67.769 82.9193 59.9725 91.0756 62.3714C101.271 65.3701 101.871 73.1665 102.47 76.1651C103.07 79.1637 89.8761 99.5544 80.8803 108.55C71.8844 117.546 61.0893 150.531 58.0907 157.728C55.0921 164.925 52.0935 187.114 49.0949 197.909C46.0962 208.704 12.5116 245.288 19.1086 257.882C25.7056 270.476 37.7001 265.079 40.6987 263.879C43.6973 262.68 46.696 257.882 53.8927 243.489C67.0866 230.295 76.5531 205.106 78.4814 197.909C80.4098 190.713 80.2806 170.322 83.8789 170.322C89.1565 173.681 104.869 198.909 112.066 211.103V251.285C112.066 259.081 120.462 269.277 128.259 267.478C134.973 269.277 140.253 257.882 140.253 256.682C140.253 255.483 142.052 206.905 139.054 199.109C136.055 191.312 108.468 160.127 108.468 155.329C108.468 150.531 123.461 105.552 124.66 110.349C130.445 131.94 159.444 125.802 175.637 130.14C191.83 134.479 195.131 121.744 190.63 113.948C186.129 106.151 157.645 109.75 149.249 104.352C140.853 98.9547 134.856 85.7607 124.66 71.967C114.465 58.1734 101.871 55.7745 88.077 55.7745Z" fill="#2B7FFF"/>
<path d="M97.0728 77.9643C99.4717 64.5304 88.077 64.7703 82.0797 66.5695C73.0838 69.5681 61.0893 92.3577 55.0921 101.354C49.3347 108.071 45.0966 117.746 43.6973 121.744C40.6346 129.941 34.1878 147.532 32.9022 152.33C31.2953 158.328 32.9022 161.969 40.0989 166.124C45.8563 169.448 51.2938 163.511 53.2929 160.127C54.6922 156.129 58.4505 145.134 62.2888 133.139C67.0866 118.146 79.6808 104.352 82.0797 101.354C84.4786 98.355 95.8734 83.9615 97.0728 77.9643Z" fill="#2B7FFF"/>
<path d="M60.4896 29.9863C50.4142 25.1885 41.4983 27.9872 38.2998 29.9863C30.5032 32.4597 0.51704 92.9575 0.51704 104.352C-4.28076 113.948 25.7055 130.14 32.9022 126.542C41.2984 115.147 67.0866 63.5709 70.685 55.7745C73.5637 49.5373 73.8835 45.1793 73.6836 43.78C73.4837 41.1811 70.565 34.7841 60.4896 29.9863Z" fill="#2B7FFF"/>
<path d="M143.852 26.9876C143.852 41.8925 131.769 53.9753 116.864 53.9753C101.959 53.9753 89.8763 41.8925 89.8763 26.9876C89.8763 12.0828 101.959 0 116.864 0C131.769 0 143.852 12.0828 143.852 26.9876Z" fill="#2B7FFF"/>
</svg>
